<svg width="280" height="265" viewBox="0 0 280 265" fill="none" xmlns="http://www.w3.org/2000/svg">
<g style="mix-blend-mode:multiply">
<path d="M227.541 17.4822C227.541 17.4822 265.848 226.671 278.566 255.886C291.289 285.101 138.638 233.899 0.0756836 231.067L7.92957 18.1845L227.541 17.4822Z" fill="white"/>
<path d="M227.513 17.4878C227.513 17.4878 265.561 226.726 277.936 255.571C290.311 284.415 136.256 233.816 0.120117 231.029L8.14537 18.3505L227.513 17.4878Z" fill="#FDFDFE"/>
<path d="M227.48 17.4877C227.48 17.4877 265.268 226.776 277.3 255.25C289.333 283.73 133.863 233.733 0.158691 230.984L8.36078 18.5107L227.485 17.4822L227.48 17.4877Z" fill="#FCFCFC"/>
<path d="M227.447 17.4933C227.447 17.4933 264.981 226.826 276.659 254.935C288.344 283.044 131.464 233.65 0.191895 230.946L8.57089 18.6767L227.447 17.4878V17.4933Z" fill="#FBFAFB"/>
<path d="M227.413 17.4933C227.413 17.4933 264.688 226.876 276.024 254.614C287.365 282.353 129.077 233.567 0.230469 230.902L8.78076 18.8371L227.413 17.4878V17.4933Z" fill="#F9F9FA"/>
<path d="M227.38 17.4987C227.38 17.4987 264.395 226.931 275.383 254.299C286.376 281.672 126.678 233.489 0.263672 230.863L8.99087 19.0029L227.38 17.4932V17.4987Z" fill="#F8F8F9"/>
<path d="M227.347 17.4987C227.347 17.4987 264.102 226.981 274.747 253.978C285.397 280.981 124.29 233.401 0.302246 230.818L9.20628 19.1632L227.347 17.4932V17.4987Z" fill="#F7F7F8"/>
<path d="M227.314 17.5043C227.314 17.5043 263.809 227.03 274.111 253.663C284.413 280.295 121.897 233.324 0.34082 230.78L9.41622 19.3292L227.314 17.4988V17.5043Z" fill="#F6F6F7"/>
<path d="M227.281 17.5044C227.281 17.5044 263.521 227.08 273.47 253.348C283.424 279.61 119.504 233.241 0.374023 230.741L9.62626 19.4952L227.281 17.5044Z" fill="#F5F5F6"/>
<path d="M227.247 17.5098C227.247 17.5098 263.228 227.135 272.834 253.032C282.446 278.929 117.11 233.163 0.412598 230.702L9.84174 19.6609L227.247 17.5098Z" fill="#F4F4F5"/>
<path d="M227.214 17.5098C227.214 17.5098 262.936 227.185 272.199 252.712C281.462 278.238 114.717 233.08 0.45166 230.658L10.0521 19.8268L227.214 17.5098Z" fill="#F3F3F4"/>
<path d="M227.187 17.5154C227.187 17.5154 262.648 227.235 271.563 252.397C280.484 277.553 112.33 232.997 0.490234 230.619L10.2675 19.9928L227.187 17.5154Z" fill="#F3F2F4"/>
<path d="M227.154 17.5154C227.154 17.5154 262.355 227.285 270.928 252.076C279.5 276.867 109.936 232.914 0.528809 230.575L10.483 20.1532L227.159 17.5154H227.154Z" fill="#F2F1F3"/>
<path d="M227.12 17.521C227.12 17.521 262.062 227.34 270.292 251.761C278.522 276.181 107.549 232.832 0.567383 230.537L10.6929 20.3192L227.12 17.521Z" fill="#F1F0F2"/>
<path d="M227.087 17.521C227.087 17.521 261.775 227.39 269.651 251.44C277.532 275.49 105.15 232.749 0.600586 230.492L10.903 20.4795L227.087 17.521Z" fill="#F0F0F1"/>
<path d="M227.054 17.5264C227.054 17.5264 261.482 227.44 269.015 251.125C276.554 274.81 102.763 232.671 0.639648 230.454L11.1189 20.6453L227.06 17.5264H227.054Z" fill="#EFEFF1"/>
<path d="M227.021 17.5264C227.021 17.5264 261.189 227.489 268.38 250.804C275.57 274.118 100.369 232.583 0.678223 230.415L11.3288 20.8112L227.021 17.5319V17.5264Z" fill="#EEEEF0"/>
<path d="M226.988 17.532C226.988 17.532 260.896 227.545 267.739 250.489C274.581 273.433 97.9705 232.505 0.711426 230.376L11.5389 20.9772L226.988 17.5375V17.532Z" fill="#EDEDEF"/>
<path d="M226.955 17.532C226.955 17.532 260.603 227.595 267.103 250.168C273.603 272.747 95.5827 232.417 0.75 230.332L11.7543 21.1375L226.96 17.532H226.955Z" fill="#EDECEF"/>
<path d="M226.921 17.5374C226.921 17.5374 260.316 227.644 266.467 249.853C272.619 272.061 93.1894 232.339 0.788574 230.293L11.9642 21.3033L226.921 17.5374Z" fill="#ECEBEE"/>
<path d="M226.888 17.5374C226.888 17.5374 260.023 227.694 265.826 249.532C271.635 271.37 90.7962 232.256 0.821777 230.249L12.1743 21.4637L226.888 17.5374Z" fill="#EBEBED"/>
<path d="M226.855 17.543C226.855 17.543 259.73 227.749 265.19 249.217C270.651 270.69 88.4029 232.173 0.860352 230.21L12.3897 21.6296L226.86 17.543H226.855Z" fill="#EAEAED"/>
<path d="M226.828 17.543C226.828 17.543 259.443 227.799 264.561 248.896C269.679 269.999 86.0155 232.09 0.904785 230.166L12.6055 21.79L226.828 17.543Z" fill="#E9E9EC"/>
<path d="M226.794 17.5486C226.794 17.5486 259.15 227.849 263.919 248.581C268.689 269.313 83.6223 232.008 0.937988 230.127L12.8156 21.956L226.794 17.5486Z" fill="#E9E8EB"/>
<path d="M226.761 17.5486C226.761 17.5486 258.862 227.899 263.284 248.266C267.711 268.633 81.229 231.93 0.976562 230.089L13.031 22.1219L226.767 17.5541L226.761 17.5486Z" fill="#E8E8EB"/>
<path d="M226.728 17.554C226.728 17.554 258.569 227.954 262.648 247.95C266.727 267.947 78.8412 231.853 1.01514 230.05L13.2409 22.2876L226.728 17.5595V17.554Z" fill="#E7E7EA"/>
<path d="M226.695 17.554C226.695 17.554 258.276 228.004 262.007 247.63C265.743 267.256 76.4425 231.764 1.04834 230.006L13.451 22.448L226.695 17.554Z" fill="#E6E6E9"/>
<path d="M226.661 17.5596C226.661 17.5596 257.983 228.053 261.371 247.314C264.759 266.575 74.0547 231.687 1.08691 229.967L13.6664 22.614L226.667 17.5596H226.661Z" fill="#E5E5E9"/>
<path d="M226.629 17.5596C226.629 17.5596 257.691 228.103 260.736 246.994C263.776 265.884 71.6619 231.604 1.12598 229.923L13.8768 22.7744L226.629 17.5596Z" fill="#E4E4E8"/>
<path d="M226.596 17.5652C226.596 17.5652 257.403 228.159 260.095 246.679C262.792 265.199 69.2632 231.521 1.15918 229.884L14.0869 22.9403L226.596 17.5652Z" fill="#E4E4E7"/>
<path d="M226.562 17.5652C226.562 17.5652 257.11 228.208 259.459 246.358C261.808 264.513 66.8754 231.438 1.19775 229.84L14.3023 23.1007L226.568 17.5652H226.562Z" fill="#E3E3E7"/>
<path d="M226.529 17.5706C226.529 17.5706 256.817 228.258 258.823 246.043C260.83 263.827 64.4821 231.355 1.23633 229.801L14.5123 23.272L226.529 17.5761V17.5706Z" fill="#E2E2E6"/>
<path d="M226.496 17.5706C226.496 17.5706 256.524 228.308 258.182 245.722C259.84 263.136 62.0889 231.272 1.26953 229.757L14.7223 23.4324L226.496 17.5761V17.5706Z" fill="#E1E1E6"/>
<path d="M226.468 17.5762C226.468 17.5762 256.237 228.363 257.552 245.407C258.868 262.45 59.7015 231.195 1.31396 229.718L14.9436 23.5983L226.474 17.5762H226.468Z" fill="#E0E1E5"/>
<path d="M226.435 17.5762C226.435 17.5762 255.95 228.413 256.911 245.086C257.879 261.764 57.3083 231.106 1.34717 229.674L15.1481 23.7587L226.43 17.5762H226.435Z" fill="#DFE0E4"/>
<path d="M226.402 17.5818C226.402 17.5818 255.657 228.463 256.276 244.771C256.9 261.079 54.915 231.029 1.38574 229.635L15.3636 23.9247L226.402 17.5818Z" fill="#DFDFE4"/>
<path d="M226.369 17.5872C226.369 17.5872 255.364 228.518 255.64 244.455C255.916 260.393 52.5217 230.946 1.42432 229.596L15.5791 24.0904L226.374 17.5872H226.369Z" fill="#DEDEE3"/>
<path d="M226.336 17.5872C226.336 17.5872 255.071 228.568 254.999 244.135C254.927 259.707 50.1285 230.863 1.45752 229.552L15.7836 24.2508L226.33 17.5872H226.336Z" fill="#DDDEE2"/>
<path d="M226.302 17.5928C226.302 17.5928 254.778 228.623 254.363 243.82C253.949 259.022 47.7352 230.785 1.49609 229.513L15.9991 24.4168L226.302 17.5928Z" fill="#DCDDE2"/>
<path d="M226.269 17.5928C226.269 17.5928 254.49 228.667 253.727 243.499C252.965 258.33 45.3474 230.697 1.53467 229.469L16.2144 24.5772L226.275 17.5928H226.269Z" fill="#DBDCE1"/>
<path d="M226.236 17.5984C226.236 17.5984 254.197 228.723 253.086 243.184C251.981 257.65 42.9487 230.62 1.56787 229.431L16.419 24.7431L226.231 17.5984H226.236Z" fill="#DBDBE1"/>
<path d="M226.203 17.5984C226.203 17.5984 253.904 228.772 252.451 242.868C250.997 256.964 40.5554 230.537 1.60645 229.392L16.6344 24.909L226.203 17.5984Z" fill="#DADBE0"/>
<path d="M226.17 17.6038C226.17 17.6038 253.612 228.828 251.815 242.553C250.019 256.279 38.1681 230.459 1.64551 229.353L16.8504 25.0748L226.175 17.6038H226.17Z" fill="#D9DADF"/>
<path d="M226.137 17.6038C226.137 17.6038 253.319 228.872 251.174 242.232C249.03 255.593 35.7694 230.376 1.67871 229.309L17.0549 25.2352L226.131 17.6038H226.137Z" fill="#D8D9DF"/>
<path d="M226.109 17.6094C226.109 17.6094 253.031 228.927 250.544 241.917C248.057 254.907 33.387 230.293 1.72266 229.27L17.2757 25.4011L226.109 17.6094Z" fill="#D7D8DE"/>
<path d="M226.076 17.6094C226.076 17.6094 252.743 228.977 249.908 241.597C247.073 254.216 30.9937 230.21 1.76123 229.226L17.4911 25.5615L226.081 17.6094H226.076Z" fill="#D7D8DE"/>
<path d="M226.042 17.615C226.042 17.615 252.451 229.032 249.267 241.281C246.084 253.536 28.6005 230.127 1.79443 229.187L17.6957 25.7275L226.042 17.615Z" fill="#D6D7DD"/>
<path d="M18.0165 25.9872L226.015 17.6038C226.015 17.6038 251.942 226.665 248.477 240.69C247.101 246.258 198.806 244.572 143.657 240.728C83.9374 236.437 17.6572 229.757 1.85547 229.137L18.0165 25.9872Z" fill="#D3D4D9"/>
<path d="M18.3315 26.2527L225.987 17.6038C225.987 17.6038 251.439 224.31 247.681 240.109C246.41 245.456 199.098 244.367 143.226 240.557C84.6226 236.559 19.3595 229.84 1.91064 229.099L18.326 26.2582L18.3315 26.2527Z" fill="#D0D0D6"/>
<path d="M18.6522 26.5181L225.965 17.6038C225.965 17.6038 250.942 221.954 246.896 239.528C245.714 244.655 199.408 244.096 142.806 240.38C85.3303 236.608 21.0786 229.917 1.97168 229.054L18.6467 26.5181H18.6522Z" fill="#CDCDD2"/>
<path d="M18.967 26.7837L225.938 17.5984C225.938 17.5984 250.439 219.587 246.1 238.942C245 243.842 199.706 243.82 142.38 240.203C86.0319 236.647 22.7862 229.989 2.03223 229.005L18.967 26.7782V26.7837Z" fill="#CACACE"/>
<path d="M19.2877 27.0435L225.916 17.5928C225.916 17.5928 249.947 217.22 245.315 238.356C244.293 243.029 200.016 243.543 141.96 240.026C86.734 236.686 24.5052 230.066 2.09863 228.96L19.2877 27.0435Z" fill="#C8C7CB"/>
<path d="M19.608 27.309L225.893 17.5928C225.893 17.5928 249.449 214.853 244.525 237.775C243.569 242.216 200.32 243.261 141.534 239.855C87.4356 236.719 26.2128 230.149 2.15918 228.922L19.608 27.309Z" fill="#C5C4C8"/>
<path d="M19.9235 27.5743L225.866 17.5872C225.866 17.5872 248.947 212.486 243.735 237.189C242.845 241.397 200.624 242.973 141.109 239.677C88.138 236.741 27.9266 230.221 2.21484 228.877L19.9179 27.5743H19.9235Z" fill="#C2C1C4"/>
<path d="M20.2438 27.8344L225.844 17.5818C225.844 17.5818 248.449 210.114 242.944 236.603C242.115 240.585 200.933 242.686 140.683 239.501C88.8397 236.763 29.6342 230.299 2.27539 228.828L20.2382 27.8344H20.2438Z" fill="#BFBEC1"/>
<path d="M20.5589 28.0998L225.816 17.5818C225.816 17.5818 247.952 207.747 242.154 236.022C241.386 239.772 201.237 242.398 140.263 239.329C89.5473 236.78 31.3532 230.382 2.3418 228.789L20.5644 28.0998H20.5589Z" fill="#BCBBBE"/>
<path d="M20.8792 28.3652L225.794 17.5762C225.794 17.5762 247.454 205.375 241.363 235.436C240.65 238.953 201.547 242.094 139.837 239.152C90.2489 236.785 33.0608 230.454 2.40234 228.745L20.8792 28.3652Z" fill="#BAB8BB"/>
<path d="M21.1945 28.6306L225.766 17.5762C225.766 17.5762 246.951 203.008 240.573 234.855C239.916 238.135 201.851 241.796 139.412 238.981C90.9566 236.796 34.7744 230.536 2.46338 228.706L21.2 28.6362L21.1945 28.6306Z" fill="#B7B5B8"/>
<path d="M21.5149 28.8905L225.744 17.5706C225.744 17.5706 246.459 200.63 239.783 234.269C239.18 237.316 202.16 241.486 138.986 238.804C91.6584 236.791 36.4821 230.614 2.51855 228.656L21.5094 28.8905H21.5149Z" fill="#B4B2B4"/>
<path d="M21.83 29.1561L225.717 17.5652C225.717 17.5652 245.957 198.258 238.992 233.678C238.44 236.492 202.464 241.165 138.566 238.621C92.3659 236.78 38.2011 230.68 2.58496 228.607L21.8356 29.1505L21.83 29.1561Z" fill="#B2AFB1"/>
<path d="M22.1505 29.4215L225.689 17.5652C225.689 17.5652 245.453 195.891 238.196 233.097C237.693 235.679 202.768 240.85 138.135 238.45C93.0623 236.774 39.9034 230.763 2.64014 228.568L22.145 29.4215H22.1505Z" fill="#AFADAE"/>
<path d="M22.4658 29.6813L225.661 17.5596C225.661 17.5596 244.956 193.519 237.406 232.511C236.953 234.855 203.078 240.524 137.71 238.273C93.77 236.758 41.617 230.841 2.70117 228.518L22.4658 29.6758V29.6813Z" fill="#ADAAAB"/>
<path d="M22.7861 29.9467L225.639 17.554C225.639 17.554 244.459 191.141 236.621 231.924C236.218 234.037 203.393 240.192 137.29 238.096C94.4772 236.741 43.3301 230.918 2.76172 228.474L22.7861 29.9412V29.9467Z" fill="#AAA7A8"/>
<path d="M23.1068 30.2121L225.617 17.554C225.617 17.554 243.967 188.774 235.831 231.344C235.472 233.224 203.697 239.854 136.87 237.924C95.1903 236.719 45.0491 230.995 2.82812 228.435L23.1068 30.2066V30.2121Z" fill="#A8A5A6"/>
<path d="M23.4221 30.4776L225.59 17.554C225.59 17.554 243.464 186.401 235.041 230.763C234.731 232.406 204.007 239.512 136.444 237.753C95.8925 236.697 46.7572 231.078 2.88916 228.396L23.4276 30.4776H23.4221Z" fill="#A5A2A3"/>
<path d="M23.7424 30.7376L225.567 17.543C225.567 17.543 242.966 184.024 234.25 230.171C233.985 231.582 204.316 239.147 136.018 237.571C96.5941 236.664 48.4703 231.15 2.94971 228.341L23.7424 30.732V30.7376Z" fill="#A39FA0"/>
<path d="M24.0573 31.003L225.54 17.543C225.54 17.543 242.469 181.657 233.46 229.591C233.239 230.763 204.625 238.782 135.593 237.399C97.3014 236.631 50.1781 231.228 3.00488 228.302L24.0573 30.9975V31.003Z" fill="#A09D9D"/>
<path d="M24.3781 31.2684L225.518 17.543C225.518 17.543 241.972 179.284 232.67 229.01C232.493 229.95 204.935 238.406 135.167 237.228C98.0037 236.597 51.8917 231.311 3.06592 228.264L24.3726 31.2684H24.3781Z" fill="#9E9A9A"/>
<path d="M24.6933 31.5284L225.49 17.532C225.49 17.532 241.474 176.907 231.879 228.419C231.747 229.121 205.239 238.013 134.747 237.045C98.7112 236.553 53.6051 231.383 3.13232 228.214L24.6988 31.5284H24.6933Z" fill="#9C9898"/>
<path d="M25.0136 31.7939L225.468 17.532C225.468 17.532 240.977 174.534 231.089 227.838C231 228.308 205.548 237.615 134.322 236.874C99.4184 236.509 55.3127 231.46 3.19287 228.17L25.0191 31.7883L25.0136 31.7939Z" fill="#999695"/>
<path d="M25.3285 32.0593L225.44 17.532C225.44 17.532 240.479 172.167 230.298 227.257C230.254 227.495 205.858 237.095 133.896 236.702C100.12 236.415 57.026 231.543 3.24805 228.131L25.3285 32.0593Z" fill="#979392"/>
<path d="M225.418 17.5264C225.418 17.5264 235.864 169.181 229.508 226.671C229.508 226.671 206.162 236.769 133.471 236.525C100.822 236.415 58.7341 231.62 3.30908 228.087L25.6494 32.3247L225.418 17.5264Z" fill="#959190"/>
<path d="M25.6491 32.3026L225.291 17.6426C225.291 17.6426 235.803 169.684 228.469 225.897C227.778 226.472 204.747 236.465 133.255 236.155C100.922 236 59.1649 231.222 4.01074 227.506L25.6435 32.3026H25.6491Z" fill="#959290"/>
<path d="M25.6491 32.2859L225.164 17.7642C225.164 17.7642 235.742 170.193 227.43 225.128C226.048 226.273 203.332 236.172 133.045 235.784C101.032 235.591 59.6016 230.83 4.71826 226.931L25.6436 32.2859H25.6491Z" fill="#969291"/>
<path d="M25.6491 32.2639L225.042 17.8804C225.042 17.8804 235.687 170.696 226.402 224.348C224.329 226.068 201.928 235.862 132.84 235.408C101.143 235.171 60.0437 230.431 5.43115 226.345L25.6546 32.2584L25.6491 32.2639Z" fill="#969392"/>
<path d="M25.6493 32.2473L224.915 18.0076C224.915 18.0076 235.627 171.211 225.363 223.585C222.599 225.88 200.513 235.574 132.625 235.049C101.242 234.772 60.475 230.044 6.1333 225.775L25.6493 32.2473Z" fill="#979493"/>
<path d="M25.6495 32.2306L224.788 18.1292C224.788 18.1292 235.566 171.719 224.324 222.817C220.87 225.681 199.093 235.276 132.41 234.684C101.348 234.363 60.9008 229.657 6.83545 225.206L25.6495 32.2362V32.2306Z" fill="#989594"/>
<path d="M25.649 32.2086L224.666 18.2454C224.666 18.2454 235.51 172.223 223.29 222.037C219.145 225.477 197.683 234.972 132.199 234.308C101.452 233.949 61.337 229.254 7.54248 224.619L25.649 32.2086Z" fill="#989695"/>
<path d="M25.6491 32.192L224.539 18.3669C224.539 18.3669 235.444 172.731 222.256 221.268C217.42 225.283 196.274 234.673 131.989 233.943C101.557 233.539 61.7737 228.866 8.25 224.044L25.6491 32.192Z" fill="#999796"/>
<path d="M25.6493 32.1753L224.412 18.4885C224.412 18.4885 235.383 173.24 221.218 220.499C215.691 225.089 194.859 234.374 131.774 233.572C101.657 233.13 62.205 228.468 8.95215 223.469L25.6493 32.1753Z" fill="#9A9897"/>
<path d="M25.6494 32.1532L224.291 18.6047C224.291 18.6047 235.328 173.743 220.184 219.725C213.966 224.885 193.444 234.076 131.564 233.202C101.768 232.715 62.6418 228.076 9.65967 222.888L25.6494 32.1532Z" fill="#9A9997"/>
<path d="M25.6491 32.1366L224.163 18.7263C224.163 18.7263 235.267 174.252 219.145 218.951C212.236 224.686 192.029 233.771 131.348 232.831C101.867 232.306 63.0726 227.683 10.3613 222.313L25.6436 32.1366H25.6491Z" fill="#9B9998"/>
<path d="M25.6495 32.1202L224.042 18.8481C224.042 18.8481 235.212 174.755 218.112 218.183C210.512 224.492 190.62 233.479 131.144 232.467C101.978 231.897 63.5096 227.29 11.0747 221.738L25.655 32.1202H25.6495Z" fill="#9C9A99"/>
<path d="M25.649 32.0979L223.915 18.9641C223.915 18.9641 235.151 175.258 217.078 217.408C208.787 224.287 189.21 233.174 130.933 232.096C102.088 231.488 63.9458 226.898 11.7817 221.158L25.6546 32.1034L25.649 32.0979Z" fill="#9C9B9A"/>
<path d="M25.6493 32.0814L223.788 19.0859C223.788 19.0859 235.085 175.767 216.039 216.64C207.057 224.094 187.79 232.881 130.718 231.731C102.188 231.078 64.3771 226.505 12.4839 220.588L25.6493 32.0925V32.0814Z" fill="#9D9C9B"/>
<path d="M25.6493 32.0592L223.666 19.2019C223.666 19.2019 235.03 176.27 215.005 215.86C205.333 223.889 186.381 232.571 130.508 231.349C102.293 230.653 64.8138 226.101 13.1914 219.996L25.6549 32.0592H25.6493Z" fill="#9E9D9C"/>
<path d="M25.6491 32.0427L223.539 19.3237C223.539 19.3237 234.969 176.779 213.966 215.091C203.603 223.69 184.966 232.273 130.292 230.985C102.392 230.249 65.2447 225.714 13.8931 219.427L25.6491 32.0483V32.0427Z" fill="#9E9E9D"/>
<path d="M25.6493 32.0261L223.412 19.4453C223.412 19.4453 240.894 181.579 212.927 214.323C203.597 225.25 183.551 231.98 130.077 230.619C102.497 229.84 65.6705 225.322 14.5952 218.852L25.6437 32.0316L25.6493 32.0261Z" fill="#9F9F9E"/>
<path d="M25.6492 32.004L223.29 19.5615C223.29 19.5615 240.054 181.729 211.899 213.543C201.779 224.973 182.147 231.67 129.872 230.243C102.607 229.425 66.1125 224.924 15.3081 218.265L25.6547 32.004H25.6492Z" fill="#A0A09F"/>
<path d="M25.6494 31.9873L223.163 19.6831C223.163 19.6831 239.23 181.856 210.86 212.774C199.933 224.686 180.727 231.377 129.657 229.878C102.707 229.016 66.5439 224.531 16.0103 217.696L25.6494 31.9929V31.9873Z" fill="#A0A19F"/>
<path d="M25.6491 31.9707L223.036 19.8047C223.036 19.8047 238.44 181.95 209.821 212.005C198.054 224.365 179.312 231.078 129.441 229.508C102.812 228.606 66.9747 224.138 16.7119 217.115L25.6436 31.9707H25.6491Z" fill="#A1A1A0"/>
<path d="M25.649 31.9487L222.914 19.9209C222.914 19.9209 237.682 182.011 208.787 211.231C196.158 224.006 177.902 230.78 129.237 229.137C102.922 228.192 67.4168 223.74 17.4248 216.535L25.6546 31.9487H25.649Z" fill="#A1A2A1"/>
<path d="M25.6492 31.932L222.787 20.0425C222.787 20.0425 236.947 182.038 207.748 210.457C194.235 223.607 176.487 230.476 129.021 228.767C103.022 227.782 67.8426 223.347 18.127 215.959L25.6492 31.932Z" fill="#A2A3A2"/>
<path d="M25.6493 31.9156L222.66 20.1643C222.66 20.1643 236.251 182.038 206.715 209.688C192.289 223.187 175.073 230.183 128.811 228.402C103.127 227.373 68.2793 222.96 18.8345 215.384L25.6549 31.9156H25.6493Z" fill="#A3A4A3"/>
<path d="M25.6494 31.8933L222.539 20.2803C222.539 20.2803 235.588 182.005 205.681 208.914C190.327 222.728 173.663 229.878 128.601 228.031C103.238 226.964 68.716 222.562 19.542 214.809L25.6549 31.8988L25.6494 31.8933Z" fill="#A3A5A4"/>
<path d="M25.6491 31.8768L222.411 20.4021C222.411 20.4021 234.963 181.939 204.642 208.146C188.337 222.236 172.248 229.58 128.385 227.667C103.337 226.555 69.1468 222.175 20.2437 214.234L25.6491 31.8824V31.8768Z" fill="#A4A6A5"/>
<path d="M222.284 20.5181C222.284 20.5181 234.366 181.839 203.603 207.366C176.311 230.011 153.462 235.784 20.9458 213.648L25.6493 31.8546L222.29 20.5181H222.284Z" fill="#A4A7A6"/>
</g>
<path d="M0.534341 228.557C31.4304 229.027 82.5665 230.741 102.298 230.913C209.517 231.853 203.608 210.181 203.608 210.181C220.571 194.846 225.976 150.263 227.004 107.942C228.126 61.8273 225.412 17.4546 225.412 17.4546L4.74593 14.8887L0.528809 228.557H0.534341Z" fill="url(#paint0_linear_254_1365)"/>
<path d="M131.79 34.4703C124.738 34.2823 82.5664 32.7007 82.5664 32.7007L83.1578 1.1189L145.95 2.82767C145.95 2.82767 145.37 21.0158 145.32 25.9707C145.276 30.9256 145.867 35.7644 145.867 35.7644C145.867 35.7644 138.837 34.6584 131.785 34.4703H131.79Z" fill="#A5967F"/>
<path d="M82.8351 0.357167L81.9639 32.364L144.755 34.075L145.626 2.06814L82.8351 0.357167Z" fill="url(#paint1_linear_254_1365)"/>
<defs>
<linearGradient id="paint0_linear_254_1365" x1="197.396" y1="207.476" x2="114.081" y2="124.201" gradientUnits="userSpaceOnUse">
<stop stop-color="white"/>
<stop offset="0.51" stop-color="#EAEAE8"/>
<stop offset="0.9" stop-color="#F1F1EF"/>
<stop offset="1" stop-color="#F4F4F2"/>
</linearGradient>
<linearGradient id="paint1_linear_254_1365" x1="105.242" y1="-8.22921" x2="119.742" y2="34.7121" gradientUnits="userSpaceOnUse">
<stop stop-color="#E3CC99"/>
<stop offset="0.01" stop-color="#E4CD9A"/>
<stop offset="0.13" stop-color="#EFD4A6"/>
<stop offset="0.31" stop-color="#F5D8AD"/>
<stop offset="0.79" stop-color="#F7DAAF"/>
<stop offset="1" stop-color="#F5E9C9"/>
</linearGradient>
</defs>
</svg>
